# xmcd
#
# Track frame offsets: 
#        150
#        16204
#        35402
#        53248
#        69574
#        84535
#        103475
#        123255
#        146004
#        163284
#        177321
#        212889
#        231176
#        251488
#        267060
#
# Disc length: 3796 seconds
#
# Revision: 0
# Processed by: cddbd v1.5.2PL0 Copyright (c) Steve Scherf et al.
# Submitted via: ExactAudioCopy v0.99pb4
#
DISCID=d90ed20f
DTITLE=Anthony Hamilton - The Point Of It All [Bonus Track]
DYEAR=2009
DGENRE=R&B
TTITLE0=The News
TTITLE1=Cool
TTITLE2=The Day We Met
TTITLE3=Diamond In The Rough
TTITLE4=I Did It For Sho
TTITLE5=Hard To Breathe
TTITLE6=Soul's On Fire
TTITLE7=Please Stay
TTITLE8=The Point Of It All
TTITLE9=Fallin' In Love
TTITLE10=Prayin' For You/Superman
TTITLE11=Her Heart
TTITLE12=Fine Again
TTITLE13=She's Gone
TTITLE14=Do You Feel Me
EXTD=
EXTT0=
EXTT1=
EXTT2=
EXTT3=
EXTT4=
EXTT5=
EXTT6=
EXTT7=
EXTT8=
EXTT9=
EXTT10=
EXTT11=
EXTT12=
EXTT13=
EXTT14=
PLAYORDER=
